<?xml version="1.0" standalone="no"?>
<!DOCTYPE svg PUBLIC "-//W3C//DTD SVG 20010904//EN" "http://www.w3.org/TR/2001/REC-SVG-20010904/DTD/svg10.dtd">
<svg version="1.0" xmlns="http://www.w3.org/2000/svg" width="648.000000pt" height="648.000000pt" viewBox="0 0 648.000000 648.000000" preserveAspectRatio="xMidYMid meet">
  <metadata>
    Created by potrace 1.15, written by Peter Selinger 2001-2017
  </metadata>
  <g transform="translate(0.000000,648.000000) scale(0.100000,-0.100000)" fill="#000000" stroke="none">
    <path
      d="M3020 5924 c-14 -2 -65 -9 -115 -15 -569 -68 -1132 -342 -1548 -754
-429 -425 -697 -957 -789 -1570 -8 -59 -13 -185 -13 -370 0 -260 2 -291 28
-436 101 -576 349 -1053 761 -1465 421 -420 910 -669 1507 -766 111 -18 177
-22 389 -22 261 -1 349 6 545 46 618 124 1173 461 1577 958 248 306 448 720
532 1100 50 230 60 328 60 595 1 283 -12 397 -70 632 -121 498 -354 912 -714
1274 -417 419 -912 673 -1500 770 -96 16 -183 22 -375 24 -137 2 -261 2 -275
-1z m1827 -1885 c268 -36 478 -174 593 -390 l31 -59 -217 -105 c-119 -58 -220
-105 -223 -105 -4 0 -20 30 -36 68 -57 132 -148 192 -290 192 -60 0 -82 -5
-133 -31 -140 -69 -202 -213 -202 -464 0 -250 61 -389 205 -463 42 -21 64 -26
135 -26 74 -1 92 3 143 28 60 29 121 94 147 155 7 18 18 30 25 27 6 -2 111
-39 233 -83 l221 -78 -35 -65 c-143 -260 -401 -400 -739 -400 -349 0 -625 158
-760 435 -57 116 -82 211 -97 357 -27 273 45 546 190 722 181 219 491 328 809
285z m-3185 -616 c3 -551 4 -601 21 -638 24 -53 63 -93 112 -116 46 -21 194
-26 257 -9 78 22 127 88 147 195 7 38 11 255 11 612 l0 553 256 0 255 0 -3
-642 c-4 -611 -5 -646 -24 -713 -30 -101 -70 -178 -123 -230 -123 -124 -355
-195 -636 -195 -362 0 -626 112 -715 302 -65 140 -64 120 -70 831 l-5 647 257
0 257 0 3 -597z m1908 -278 l0 -875 -255 0 -255 0 0 875 0 875 255 0 255 0 0
-875z"/>
  </g>
</svg>
